<?xml version="1.0" standalone="no"?>
<!DOCTYPE svg PUBLIC "-//W3C//DTD SVG 20010904//EN"
 "http://www.w3.org/TR/2001/REC-SVG-20010904/DTD/svg10.dtd">
<svg version="1.0" xmlns="http://www.w3.org/2000/svg"
 width="640.000000pt" height="640.000000pt" viewBox="0 0 640.000000 640.000000"
 preserveAspectRatio="xMidYMid meet">
<metadata>
Created by potrace 1.11, written by Peter Selinger 2001-2013
</metadata>
<g transform="translate(0.000000,640.000000) scale(0.100000,-0.100000)"
fill="#000000" stroke="none">
<path d="M2820 6380 c-535 -72 -996 -246 -1434 -542 -48 -33 -96 -66 -105 -73
-372 -301 -534 -473 -746 -795 -146 -220 -233 -393 -340 -670 -79 -205 -144
-478 -179 -755 -14 -109 -16 -605 -3 -685 3 -19 9 -53 12 -76 6 -41 7 -51 26
-159 53 -306 189 -688 347 -970 233 -418 514 -742 887 -1020 432 -322 1002
-553 1510 -611 33 -3 69 -9 80 -12 11 -2 144 -6 295 -7 292 -3 432 9 655 55
993 207 1807 832 2245 1725 163 333 259 656 310 1040 19 147 26 568 10 671 -4
27 -11 78 -14 112 -15 143 -73 400 -131 574 -229 699 -663 1276 -1260 1675
-218 146 -502 287 -750 371 -203 69 -466 131 -625 148 -36 3 -87 10 -114 14
-100 15 -533 9 -676 -10z"/>
</g>
</svg>
